# AST/ASF file generated using VICON BodyLanguage
# -----------------------------------------------
:version 1.10
:name VICON
:units
  mass 1.0
  length 0.45
  angle deg
:documentation
   .ast/.asf automatically generated from VICON data using
   VICON BodyBuilder and BodyLanguage model FoxedUp or BRILLIANT.MOD
:root
   order TX TY TZ RX RY RZ
   axis XYZ
   position 0 0 0  
   orientation 0 0 0 
:bonedata
  begin
     id 1 
     name lhipjoint
     direction 0.521452 -0.77106 0.36545 
     length 2.0933 
     axis 0 0 0  XYZ
  end
  begin
     id 2 
     name lfemur
     direction 0.34202 -0.939693 0  
     length 6.83441  
     axis 0 0 20  XYZ
    dof rx ry rz
    limits (-160.0 20.0)
           (-70.0 70.0)
           (-60.0 70.0)
  end
  begin
     id 3 
     name ltibia
     direction 0.34202 -0.939693 0   
     length 7.28749   
     axis 0 0 20   XYZ
    dof rx
    limits (-10.0 170.0)
  end
  begin
     id 4 
     name lfoot
     direction 0.100608 -0.276418 0.955757   
     length 1.52195   
     axis -90 7.62852e-016 20   XYZ
    dof rx rz
    limits (-45.0 90.0)
           (-70.0 20.0)
  end
  begin
     id 5 
     name ltoes
     direction 1.53558e-011 -4.21907e-011 1   
     length 0.770459   
     axis -90 7.62852e-016 20   XYZ
    dof rx
    limits (-90.0 20.0)
  end
  begin
     id 6 
     name rhipjoint
     direction -0.488071 -0.788702 0.373812   
     length 2.04648  
     axis 0 0 0  XYZ 
  end
  begin
     id 7 
     name rfemur
     direction -0.34202 -0.939693 0   
     length 6.92583   
     axis 0 0 -20   XYZ
    dof rx ry rz
    limits (-160.0 20.0)
           (-70.0 70.0)
           (-70.0 60.0)
  end
  begin
     id 8 
     name rtibia
     direction -0.34202 -0.939693 0   
     length 7.41043   
     axis 0 0 -20   XYZ
    dof rx
    limits (-10.0 170.0)
 end
 begin
     id 9 
     name rfoot
     direction -0.0784433 -0.215521 0.973343   
     length 1.67708  
     axis -90 -7.62852e-016 -20   XYZ
    dof rx rz
    limits (-45.0 90.0)
           (-20.0 70.0)
  end
  begin
     id 10 
     name rtoes
     direction -1.53551e-011 -4.21842e-011 1   
     length 0.849787   
     axis -90 -7.62852e-016 -20   XYZ
    dof rx
    limits (-90.0 20.0)
  end
  begin
     id 11 
     name lowerback
     direction -0.0122332 0.997575 -0.0685192   
     length 1.98724   
     axis 0 0 0   XYZ
    dof rx ry rz
    limits (-20.0 45.0)
           (-30.0 30.0)
           (-30.0 30.0)
  end
  begin
     id 12 
     name upperback
     direction 0.0182347 0.999724 -0.0148421   
     length 1.99029   
     axis 0 0 0   XYZ
    dof rx ry rz
    limits (-20.0 45.0)
           (-30.0 30.0)
           (-30.0 30.0)
  end
  begin
     id 13 
     name thorax
     direction 0.0242908 0.99956 0.0170184   
     length 1.99573   
     axis 0 0 0   XYZ
    dof rx ry rz
    limits (-20.0 45.0)
           (-30.0 30.0)
           (-30.0 30.0)
  end
  begin
     id 14 
     name lowerneck
     direction 0.0654488 0.985533 0.156338   
     length 1.4285   
     axis 0 0 0   XYZ
    dof rx ry rz
    limits (-20.0 45.0)
           (-30.0 30.0)
           (-30.0 30.0)
  end
  begin
     id 15 
     name upperneck
     direction -0.02953 0.998556 -0.0448842   
     length 1.44709   
     axis 0 0 0   XYZ
    dof rx ry rz
    limits (-20.0 45.0)
           (-30.0 30.0)
           (-30.0 30.0)
  end
  begin
     id 16
     name head
     direction -0.0155588 0.999386 -0.0314063  
     length 1.44689  
     axis 0 0 0   XYZ
    dof rx ry rz
    limits (-20.0 45.0)
           (-30.0 30.0)
           (-30.0 30.0)
  end
  begin
     id 17 
     name lclavicle
     direction 0.968229 0.236071 -0.0824755  
     length 3.60593  
     axis 0 0 0   XYZ
    dof ry rz
    limits (-20.0 10.0)
           (0.0 20.0)
  end
  begin
     id 18 
     name lhumerus
     direction 1 -4.48968e-011 7.8138e-029   
     length 5.06035   
     axis 180 -30 -90   XYZ
    dof rx ry rz
    limits (-60.0 90.0)
           (-90.0 90.0)
           (-90.0 90.0)
  end
  begin
     id 19
     name lradius
     direction 1 -4.48967e-011 9.02887e-028   
     length 3.1478   
     axis 180 -30 -90   XYZ
    dof rx
    limits (-10.0 170.0)
  end
  begin
     id 20
     name lwrist
     direction 1 -4.48961e-011 7.20928e-028   
     length 1.5739   
     axis -5.52449e-016 90 90   XYZ
    dof ry
    limits (-180.0 0.0)
 end
  begin
     id 21 
     name lhand
     direction 1 -4.48972e-011 1.44186e-027   
     length 0.606747   
     axis -9.20027e-016 90 90   XYZ
    dof rx rz
    limits (-90.0 90.0)
           (-45.0 45.0)
  end
  begin
     id 22 
     name lfingers
     direction 1 -4.48943e-011 2.88371e-027   
     length 0.489175   
     axis -1.84005e-015 90 90   XYZ
    dof rx
    limits (0.0 90.0)
  end
  begin
     id 23
     name lthumb
     direction 0.707107 -6.34917e-011 0.707107   
     length 0.70236   
     axis -90 45 2.85299e-015   XYZ
    dof rx rz
    limits (-45.0 45.0)
           (-45.0 45.0)
  end
  begin
     id 24 
     name rclavicle
     direction -0.978165 0.207816 0.0022268   
     length 3.35425  
     axis 0 0 0   XYZ 
    dof ry rz
    limits (-10.0 20.0)
           (-20.0 0.0)
  end
  begin
     id 25 
     name rhumerus
     direction -1 -4.48964e-011 -4.02159e-027  
     length 5.12273   
     axis 180 30 90   XYZ
    dof rx ry rz
    limits (-90.0 60.0)
           (-90.0 90.0)
           (-90.0 90.0)
  end
  begin
     id 26 
     name rradius
     direction -1 -4.48966e-011 1.62746e-027   
     length 3.422   
     axis 180 30 90   XYZ
    dof rx
    limits (-10.0 170.0)
  end
  begin
     id 27 
     name rwrist
     direction -1 -4.4896e-011 7.20928e-028   
     length 1.711   
     axis -5.52449e-016 -90 -90   XYZ
    dof ry
    limits (-180.0 0.0)
  end
  begin
     id 28
     name rhand
     direction -1 -4.48979e-011 1.44186e-027   
     length 0.704599   
     axis -9.20027e-016 -90 -90   XYZ
    dof rx rz
    limits (-90.0 90.0)
           (-45.0 45.0)
  end
  begin
     id 29
     name rfingers
     direction -1 -4.48962e-011 2.88371e-027   
     length 0.568066   
     axis -1.84005e-015 -90 -90   XYZ
    dof rx
    limits (0.0 90.0)
  end
  begin
     id 30
     name rthumb
     direction -0.707107 -6.34949e-011 0.707107   
     length 0.815633   
     axis -90 -45 -2.85299e-015   XYZ
    dof rx rz
    limits (-45.0 45.0)
           (-45.0 45.0)
  end
:hierarchy
  begin
    root lhipjoint rhipjoint lowerback
    lhipjoint lfemur
    lfemur ltibia
    ltibia lfoot
    lfoot ltoes
    rhipjoint rfemur
    rfemur rtibia
    rtibia rfoot
    rfoot rtoes
    lowerback upperback
    upperback thorax
    thorax lowerneck lclavicle rclavicle
    lowerneck upperneck
    upperneck head
    lclavicle lhumerus
    lhumerus lradius
    lradius lwrist
    lwrist lhand lthumb
    lhand lfingers
    rclavicle rhumerus
    rhumerus rradius
    rradius rwrist
    rwrist rhand rthumb
    rhand rfingers
  end

#!OML:ASF E:\id_vita\Project 1\Capture day 1\Session 1\Male1.ASF
:FULLY-SPECIFIED
:DEGREES
594
root 3.3349 27.153 0.427179 -170.603 84.8308 -187.155
lowerback 11.9773 -1.49508 -8.1277
upperback 9.38741 -2.05026 -1.24721
thorax 3.51158 -1.16596 3.42787
lowerneck -4.12109 2.05691 3.42092
upperneck -8.36271 3.41584 6.49614
head -2.00056 1.62999 1.45372
rclavicle 1.82882e-014 -7.15625e-015
rhumerus 36.4828 12.3881 -71.9436
rradius 124.997
rwrist -2.4403
rhand -30.4757 48.2509
rfingers 7.12502
rthumb -3.77681 18.3046
lclavicle 1.82882e-014 -7.15625e-015
lhumerus 49.8272 -10.7335 60.3248
lradius 119.483
lwrist -3.57308
lhand -32.0044 39.8446
lfingers 7.12502
lthumb -5.25299 69.7595
rfemur -34.9505 -2.17451 18.248
rtibia 31.1879
rfoot -9.64903 -8.34617
rtoes -9.2941
lfemur -31.2659 -0.027092 -18.1562
ltibia 33.0145
lfoot -21.0715 -1.1168
ltoes 25.2847
595
root 3.33325 27.1536 0.427515 -170.225 84.8585 -186.76
lowerback 11.9829 -1.47725 -8.13403
upperback 9.34745 -2.0328 -1.27907
thorax 3.46189 -1.15476 3.39761
lowerneck -3.86823 2.00399 3.72449
upperneck -8.34699 3.33784 6.36286
head -2.02902 1.57769 1.35719
rclavicle -6.36111e-015 1.59028e-015
rhumerus 36.3781 12.423 -71.9846
rradius 125.043
rwrist -2.34235
rhand -30.4463 48.1552
rfingers 7.12502
rthumb -3.74845 18.2084
lclavicle -6.36111e-015 1.59028e-015
lhumerus 49.7948 -10.8529 60.3036
lradius 119.442
lwrist -3.64038
lhand -30.765 40.1778
lfingers 7.12502
lthumb -4.05616 70.1189
rfemur -34.9257 -2.10386 18.2833
rtibia 31.1596
rfoot -9.6033 -8.38429
rtoes -9.53237
lfemur -31.2258 -0.217352 -18.0484
ltibia 33.0109
lfoot -21.0892 -0.942881
ltoes 25.6533
596
root 3.33254 27.1544 0.42771 -170.901 84.839 -187.405
lowerback 12.0325 -1.48542 -8.20713
upperback 9.32033 -2.05561 -1.31604
thorax 3.41159 -1.16597 3.40324
lowerneck -3.70686 1.89186 3.92296
upperneck -8.36553 3.19391 6.38013
head -2.05784 1.49495 1.32862
rclavicle 5.56597e-015 -1.03368e-014
rhumerus 36.2567 12.5382 -71.9689
rradius 125.127
rwrist -2.12375
rhand -30.4246 48.1316
rfingers 7.12502
rthumb -3.72746 18.1844
lclavicle 5.56597e-015 -1.03368e-014
lhumerus 49.7445 -10.8797 60.326
lradius 119.496
lwrist -3.66609
lhand -29.6922 40.4996
lfingers 7.12502
lthumb -3.02021 70.4579
rfemur -34.8936 -2.10104 18.2115
rtibia 31.161
rfoot -9.61842 -8.37479
rtoes -9.10344
lfemur -31.1845 -0.346578 -18.0721
ltibia 33.0113
lfoot -21.1003 -0.903794
ltoes 25.6224
597
root 3.33362 27.1527 0.427738 -171.376 84.7545 -187.856
lowerback 12.0447 -1.52296 -8.24872
upperback 9.33623 -2.1062 -1.31692
thorax 3.43135 -1.19343 3.42931
lowerneck -3.59578 1.99041 3.83448
upperneck -8.35597 3.31676 6.20456
head -2.07297 1.55793 1.28525
rclavicle -3.33958e-014 -1.43125e-014
rhumerus 36.2466 12.5391 -71.95
rradius 125.12
rwrist -2.18494
rhand -30.4198 48.1301
rfingers 7.12502
rthumb -3.72286 18.1829
lclavicle -3.33958e-014 -1.43125e-014
lhumerus 49.699 -10.8587 60.3493
lradius 119.612
lwrist -3.61324
lhand -29.3964 40.5819
lfingers 7.12502
lthumb -2.73457 70.5441
rfemur -34.8463 -2.1962 18.1748
rtibia 31.1746
rfoot -9.63727 -8.37427
rtoes -8.61071
lfemur -31.1942 -0.202541 -18.1732
ltibia 33.0008
lfoot -21.0357 -1.13059
ltoes 25.4114
598
root 3.3332 27.1512 0.428192 -171.596 84.7438 -188.074
lowerback 12.0481 -1.53553 -8.29799
upperback 9.33734 -2.12675 -1.31244
thorax 3.43681 -1.2064 3.46301
lowerneck -3.58069 1.98416 3.78987
upperneck -8.3547 3.30962 6.21555
head -2.07606 1.55476 1.29624
rclavicle -6.36111e-015 5.56597e-015
rhumerus 36.2905 12.5852 -71.8679
rradius 125.09
rwrist -2.0424
rhand -30.4002 48.1127
rfingers 7.12502
rthumb -3.70397 18.1652
lclavicle -6.36111e-015 5.56597e-015
lhumerus 49.6673 -10.8248 60.3275
lradius 119.659
lwrist -3.5366
lhand -29.9338 40.6203
lfingers 7.12502
lthumb -3.25348 70.5752
rfemur -34.8512 -2.27779 18.1768
rtibia 31.1853
rfoot -9.63452 -8.3449
rtoes -8.82111
lfemur -31.216 -0.0397832 -18.2478
ltibia 32.9835
lfoot -20.948 -1.25629
ltoes 25.2379
599
root 3.33082 27.1527 0.428199 -171.419 84.809 -187.944
lowerback 12.0127 -1.52479 -8.3087
upperback 9.31193 -2.11485 -1.31369
thorax 3.42737 -1.20125 3.46617
lowerneck -3.53526 1.96941 3.74282
upperneck -8.3467 3.29263 6.23856
head -2.0824 1.54587 1.31128
rclavicle 1.51076e-014 8.74653e-015
rhumerus 36.3311 12.6396 -71.8185
rradius 125.038
rwrist -1.94935
rhand -30.3914 48.0236
rfingers 7.12502
rthumb -3.69544 18.0759
lclavicle 1.51076e-014 8.74653e-015
lhumerus 49.6796 -10.7619 60.3071
lradius 119.55
lwrist -3.54005
lhand -30.5746 40.6004
lfingers 7.12502
lthumb -3.8723 70.5449
rfemur -34.938 -2.2705 18.1999
rtibia 31.1817
rfoot -9.63503 -8.2837
rtoes -8.98237
lfemur -31.2479 -0.102471 -18.2084
ltibia 32.9655
lfoot -20.9297 -1.10145
ltoes 25.1216
600
root 3.32941 27.1549 0.428598 -171.511 84.8173 -188.069
lowerback 11.9832 -1.53491 -8.33921
upperback 9.29864 -2.13021 -1.31372
thorax 3.43281 -1.21095 3.48358
lowerneck -3.48734 1.97526 3.73906
upperneck -8.36471 3.30405 6.23396
head -2.0968 1.54999 1.30994
rclavicle 6.36111e-015 1.59028e-014
rhumerus 36.3233 12.7042 -71.8186
rradius 125.047
rwrist -1.95671
rhand -30.3988 47.9413
rfingers 7.12502
rthumb -3.70256 17.9937
lclavicle 6.36111e-015 1.59028e-014
lhumerus 49.6632 -10.7183 60.2872
lradius 119.357
lwrist -3.76568
lhand -31.0377 40.4639
lfingers 7.12502
lthumb -4.31954 70.3999
rfemur -34.9822 -2.22807 18.1784
rtibia 31.1725
rfoot -9.63245 -8.2777
rtoes -9.05871
lfemur -31.2634 -0.291139 -18.1578
ltibia 32.9438
lfoot -20.944 -0.953971
ltoes 25.3373
601
root 3.33041 27.156 0.429708 -172.031 84.7679 -188.558
lowerback 12.0085 -1.56185 -8.4195
upperback 9.32413 -2.16958 -1.31735
thorax 3.45725 -1.23466 3.52752
lowerneck -3.52296 1.99782 3.7188
upperneck -8.38509 3.33636 6.24447
head -2.09848 1.56722 1.31687
rclavicle 1.19271e-014 2.78299e-014
rhumerus 36.3437 12.7812 -71.7949
rradius 125.092
rwrist -1.92441
rhand -30.3939 47.895
rfingers 7.12502
rthumb -3.69789 17.9473
lclavicle 1.19271e-014 2.78299e-014
lhumerus 49.6285 -10.664 60.3209
lradius 119.573
lwrist -3.478
lhand -30.3979 40.5043
lfingers 7.12502
lthumb -3.70168 70.4519
rfemur -34.9315 -2.22552 18.1231
rtibia 31.1795
rfoot -9.60299 -8.29555
rtoes -9.20137
lfemur -31.2062 -0.361065 -18.1881
ltibia 32.9217
lfoot -21.0013 -0.968619
ltoes 25.6064
602
root 3.33058 27.155 0.429318 -172.435 84.7555 -188.967
lowerback 11.9994 -1.58194 -8.47948
upperback 9.34071 -2.19691 -1.32722
thorax 3.48751 -1.25179 3.55176
lowerneck -3.56899 2.0187 3.74583
upperneck -8.40522 3.36018 6.19538
head -2.09577 1.5799 1.29682
rclavicle -3.18055e-015 0
rhumerus 36.4012 12.8315 -71.7545
rradius 125.143
rwrist -1.957
rhand -30.3669 47.795
rfingers 7.12502
rthumb -3.6718 17.8469
lclavicle -3.18055e-015 0
lhumerus 49.5817 -10.6556 60.2823
lradius 119.381
lwrist -3.82953
lhand -30.8951 40.4006
lfingers 7.12502
lthumb -4.18183 70.3393
rfemur -34.9438 -2.28228 18.0981
rtibia 31.205
rfoot -9.58611 -8.28653
rtoes -9.24141
lfemur -31.2073 -0.224786 -18.2821
ltibia 32.9095
lfoot -21.0382 -1.0548
ltoes 25.4465
603
root 3.32918 27.152 0.428388 -172.792 84.7544 -189.356
lowerback 11.9799 -1.59862 -8.52334
upperback 9.32274 -2.2231 -1.33319
thorax 3.48453 -1.26688 3.57154
lowerneck -3.42378 2.17084 3.54177
upperneck -8.44698 3.57543 6.15216
head -2.14097 1.68932 1.3143
rclavicle -3.18055e-015 2.14687e-014
rhumerus 36.3622 12.8359 -71.7705
rradius 125.112
rwrist -2.13976
rhand -30.3843 47.753
rfingers 7.12502
rthumb -3.68853 17.8052
lclavicle -3.18055e-015 2.14687e-014
lhumerus 49.4801 -10.621 60.2871
lradius 119.477
lwrist -3.64269
lhand -30.2738 40.5612
lfingers 7.12502
lthumb -3.58188 70.5109
rfemur -35.0018 -2.35642 18.0816
rtibia 31.2487
rfoot -9.67823 -8.30224
rtoes -9.3293
lfemur -31.2601 -0.081182 -18.3695
ltibia 32.9054
lfoot -20.9997 -1.20763
ltoes 25.5512
604
root 3.3284 27.1511 0.427003 -172.613 84.6912 -189.133
lowerback 12.0447 -1.62656 -8.49019
upperback 9.29397 -2.26671 -1.33026
thorax 3.42145 -1.2844 3.56243
lowerneck -3.4 1.99081 3.7164
upperneck -8.48756 3.35312 6.35736
head -2.15704 1.56879 1.35252
rclavicle -2.14687e-014 1.51076e-014
rhumerus 36.2413 12.8108 -71.8333
rradius 124.972
rwrist -2.3276
rhand -30.4362 47.7896
rfingers 7.12502
rthumb -3.73868 17.8426
lclavicle -2.14687e-014 1.51076e-014
lhumerus 49.3289 -10.6412 60.3033
lradius 119.529
lwrist -3.62188
lhand -32.2558 40.3121
lfingers 7.12502
lthumb -5.49573 70.2208
rfemur -34.9541 -2.41581 18.1078
rtibia 31.2903
rfoot -9.84957 -8.3161
rtoes -9.06514
lfemur -31.2312 -0.0957497 -18.3449
ltibia 32.917
lfoot -20.9583 -1.34459
ltoes 25.9565
605
root 3.32768 27.1529 0.425276 -172.993 84.6811 -189.505
lowerback 12.0689 -1.63828 -8.52258
upperback 9.25978 -2.29114 -1.34636
thorax 3.37571 -1.29571 3.56699
lowerneck -3.18824 2.20649 3.52621
upperneck -8.42683 3.63545 6.18947
head -2.1779 1.71358 1.32585
rclavicle 2.78299e-014 2.70347e-014
rhumerus 36.1643 12.823 -71.8743
rradius 124.896
rwrist -2.43858
rhand -30.4428 47.8079
rfingers 7.12502
rthumb -3.74504 17.861
lclavicle 2.78299e-014 2.70347e-014
lhumerus 49.2065 -10.6479 60.3287
lradius 119.598
lwrist -3.59151
lhand -31.7595 40.7292
lfingers 7.12502
lthumb -5.01655 70.6499
rfemur -34.939 -2.46865 18.0819
rtibia 31.2997
rfoot -9.93189 -8.23847
rtoes -8.55201
lfemur -31.2244 -0.182886 -18.3641
ltibia 32.9432
lfoot -20.9435 -1.312
ltoes 25.8879
606
root 3.32744 27.1534 0.425067 -173.082 84.7321 -189.618
lowerback 12.025 -1.62209 -8.54271
upperback 9.24944 -2.26927 -1.35787
thorax 3.38628 -1.28618 3.56311
lowerneck -3.23197 2.22844 3.38803
upperneck -8.44748 3.67018 6.23788
head -2.18165 1.73471 1.36509
rclavicle -3.65764e-014 -1.98785e-014
rhumerus 36.1445 12.8367 -71.8431
rradius 124.898
rwrist -2.38877
rhand -30.4236 47.796
rfingers 7.12502
rthumb -3.72654 17.8488
lclavicle -3.65764e-014 -1.98785e-014
lhumerus 49.1573 -10.6454 60.3581
lradius 119.603
lwrist -3.58689
lhand -30.6407 40.9815
lfingers 7.12502
lthumb -3.93617 70.9249
rfemur -34.9697 -2.48108 18.0926
rtibia 31.282
rfoot -9.8888 -8.19787
rtoes -8.42283
lfemur -31.2481 -0.224506 -18.3545
ltibia 32.9737
lfoot -20.9651 -1.28105
ltoes 25.766
